<?xml version="1.0" encoding="iso-8859-1"?>
<!-- Generator: Adobe Illustrator 19.1.0, SVG Export Plug-In . SVG Version: 6.00 Build 0)  -->
<svg version="1.1" id="Capa_1" xmlns="http://www.w3.org/2000/svg" xmlns:xlink="http://www.w3.org/1999/xlink" x="0px" y="0px"
	 viewBox="0 0 62.637 62.637" style="enable-background:new 0 0 62.637 62.637;" xml:space="preserve">
<g>
	<path d="M57.038,0H5.599c-2.344,0-4.25,1.906-4.25,4.25v54.137c0,2.344,1.906,4.25,4.25,4.25h51.438c2.344,0,4.25-1.906,4.25-4.25
		V4.25C61.288,1.906,59.381,0,57.038,0z M5.599,2.5h51.438c0.965,0,1.75,0.785,1.75,1.75v10.552H3.849V4.25
		C3.849,3.285,4.634,2.5,5.599,2.5z M57.038,60.137H5.599c-0.965,0-1.75-0.785-1.75-1.75V17.302h54.938v41.085
		C58.788,59.352,58.002,60.137,57.038,60.137z"/>
	<path d="M50.698,28.683H11.94c-2.344,0-4.25,1.906-4.25,4.25V52.42c0,2.344,1.906,4.25,4.25,4.25h38.758
		c2.344,0,4.25-1.906,4.25-4.25V32.933C54.948,30.589,53.042,28.683,50.698,28.683z M11.94,31.183h38.758
		c0.965,0,1.75,0.785,1.75,1.75v10.333c-13.899-1.951-28.379-1.951-42.258,0V32.933C10.19,31.968,10.975,31.183,11.94,31.183z
		 M50.698,54.17H11.94c-0.965,0-1.75-0.785-1.75-1.75v-6.633c13.868-1.985,28.367-1.987,42.258,0v6.633
		C52.448,53.385,51.663,54.17,50.698,54.17z"/>
	<circle cx="12.727" cy="8.964" r="2.732"/>
	<circle cx="19.663" cy="8.964" r="1.366"/>
	<circle cx="24.494" cy="8.964" r="1.366"/>
	<circle cx="29.12" cy="8.964" r="1.366"/>
	<path d="M8.942,24.313c13.036,0,26.072,0,39.109,0c1.883,0,3.766,0,5.648,0c0.965,0,0.967-1.5,0-1.5c-13.036,0-26.072,0-39.109,0
		c-1.883,0-3.766,0-5.648,0C7.977,22.813,7.975,24.313,8.942,24.313z"/>
</g>
<g>
</g>
<g>
</g>
<g>
</g>
<g>
</g>
<g>
</g>
<g>
</g>
<g>
</g>
<g>
</g>
<g>
</g>
<g>
</g>
<g>
</g>
<g>
</g>
<g>
</g>
<g>
</g>
<g>
</g>
</svg>
