<?xml version="1.0" encoding="iso-8859-1"?>
<!-- Generator: Adobe Illustrator 19.1.0, SVG Export Plug-In . SVG Version: 6.00 Build 0)  -->
<svg version="1.1" id="Capa_1" xmlns="http://www.w3.org/2000/svg" xmlns:xlink="http://www.w3.org/1999/xlink" x="0px" y="0px"
	 viewBox="0 0 64.347 64.347" style="enable-background:new 0 0 64.347 64.347;" xml:space="preserve">
<g>
	<path d="M60.097,15.186H31.621c4.203-4.028,8.405-8.057,12.608-12.085c1.164-1.115-0.606-2.882-1.768-1.768
		c-4.607,4.416-9.214,8.832-13.821,13.248c-2.251-2.891-4.502-5.781-6.753-8.672c-0.987-1.268-2.745,0.513-1.768,1.768
		c1.949,2.503,3.898,5.006,5.847,7.509H4.25c-2.343,0-4.25,1.906-4.25,4.25v36.048c0,2.344,1.907,4.25,4.25,4.25h0.809
		c0,0.809,0,1.618,0,2.427c0,1.609,2.5,1.611,2.5,0c0-0.809,0-1.618,0-2.427h49.229c0,0.809,0,1.618,0,2.427
		c0,1.609,2.5,1.611,2.5,0c0-0.809,0-1.618,0-2.427h0.809c2.343,0,4.25-1.906,4.25-4.25V19.436
		C64.347,17.092,62.44,15.186,60.097,15.186z M61.847,55.484c0,0.965-0.785,1.75-1.75,1.75H4.25c-0.965,0-1.75-0.785-1.75-1.75
		V19.436c0-0.965,0.785-1.75,1.75-1.75h55.847c0.965,0,1.75,0.785,1.75,1.75V55.484z"/>
	<path d="M45.176,21.731H10.782c-2.343,0-4.25,1.906-4.25,4.25v24.06c0,2.344,1.907,4.25,4.25,4.25h34.394
		c2.343,0,4.25-1.906,4.25-4.25v-24.06C49.426,23.637,47.519,21.731,45.176,21.731z M46.926,50.04c0,0.965-0.785,1.75-1.75,1.75
		H10.782c-0.965,0-1.75-0.785-1.75-1.75v-24.06c0-0.965,0.785-1.75,1.75-1.75h34.394c0.965,0,1.75,0.785,1.75,1.75V50.04z"/>
	<circle cx="56.468" cy="26.726" r="2.404"/>
	<circle cx="56.468" cy="34.25" r="2.404"/>
	<path d="M20.002,47.334c-1.614,0-3.632,0.359-5.198-0.081c-2.305-0.648-1.654-4.064-1.654-5.879c0-0.965-1.5-0.967-1.5,0
		c0,2.251-0.543,5.203,1.541,6.73c1.759,1.288,4.767,0.73,6.811,0.73C20.968,48.834,20.969,47.334,20.002,47.334z"/>
</g>
<g>
</g>
<g>
</g>
<g>
</g>
<g>
</g>
<g>
</g>
<g>
</g>
<g>
</g>
<g>
</g>
<g>
</g>
<g>
</g>
<g>
</g>
<g>
</g>
<g>
</g>
<g>
</g>
<g>
</g>
</svg>
