<?xml version="1.0" encoding="iso-8859-1"?>
<!-- Generator: Adobe Illustrator 19.1.0, SVG Export Plug-In . SVG Version: 6.00 Build 0)  -->
<svg version="1.1" id="Capa_1" xmlns="http://www.w3.org/2000/svg" xmlns:xlink="http://www.w3.org/1999/xlink" x="0px" y="0px"
	 viewBox="0 0 61.972 61.972" style="enable-background:new 0 0 61.972 61.972;" xml:space="preserve">
<g>
	<path d="M56.539,9.737V4.25c0-2.343-1.907-4.25-4.25-4.25H10.021c-2.343,0-4.25,1.907-4.25,4.25v5.381
		c-1.83,0.474-3.192,2.125-3.192,4.1v43.99c0,2.343,1.907,4.25,4.25,4.25h48.314c2.343,0,4.25-1.907,4.25-4.25v-43.99
		C59.393,11.88,58.195,10.318,56.539,9.737z M10.021,2.5h42.269c0.965,0,1.75,0.785,1.75,1.75v5.232H8.271V4.25
		C8.271,3.285,9.056,2.5,10.021,2.5z M56.893,57.722c0,0.965-0.785,1.75-1.75,1.75H6.829c-0.965,0-1.75-0.785-1.75-1.75v-43.99
		c0-0.965,0.785-1.75,1.75-1.75h48.314c0.965,0,1.75,0.785,1.75,1.75V57.722z"/>
	<path d="M30.754,16.852c-10.062,0-18.247,8.186-18.247,18.247c0,10.062,8.186,18.247,18.247,18.247s18.247-8.186,18.247-18.247
		C49.001,25.037,40.815,16.852,30.754,16.852z M30.754,50.845c-8.683,0-15.747-7.064-15.747-15.747
		c0-8.683,7.064-15.747,15.747-15.747s15.747,7.064,15.747,15.747C46.501,43.781,39.437,50.845,30.754,50.845z"/>
	<path d="M30.754,45.131c-5.578-0.15-9.882-4.454-10.033-10.033c-0.026-0.963-1.526-0.967-1.5,0
		c0.173,6.403,5.13,11.36,11.533,11.533C31.719,46.657,31.719,45.157,30.754,45.131z"/>
	<path d="M13.288,7.251c0.313,0,0.625,0,0.938,0c1.609,0,1.611-2.5,0-2.5c-0.313,0-0.625,0-0.938,0
		C11.679,4.751,11.677,7.251,13.288,7.251z"/>
	<path d="M17.922,7.251c0.313,0,0.625,0,0.938,0c1.609,0,1.611-2.5,0-2.5c-0.313,0-0.625,0-0.938,0
		C16.314,4.751,16.311,7.251,17.922,7.251z"/>
</g>
<g>
</g>
<g>
</g>
<g>
</g>
<g>
</g>
<g>
</g>
<g>
</g>
<g>
</g>
<g>
</g>
<g>
</g>
<g>
</g>
<g>
</g>
<g>
</g>
<g>
</g>
<g>
</g>
<g>
</g>
</svg>
