<svg height="480" viewBox="0 0 3048 480" width="3048" xmlns="http://www.w3.org/2000/svg" xmlns:xlink="http://www.w3.org/1999/xlink"><linearGradient id="a"><stop offset="0" stop-color="#fff"/><stop offset=".60292095" stop-color="#fff" stop-opacity=".501961"/><stop offset="1" stop-color="#fff" stop-opacity=".501961"/></linearGradient><linearGradient id="b" gradientTransform="matrix(-1 0 0 1 3048 15)" gradientUnits="userSpaceOnUse" x1="0" x2="0" xlink:href="#a" y1="465" y2="235"/><linearGradient id="c" gradientUnits="userSpaceOnUse" x1="0" x2="0" xlink:href="#a" y1="480" y2="250"/><path d="m1524 316.62109c-278.4893 0-323.2238-69.93437-573.07031-71.35351-175.88301 7.52285-337.15402 69.96289-479.65039 69.96289s-327.59761-65.23047-471.2793-65.23047v230h1524z" fill="url(#c)"/><path d="m1524 316.62109c278.4893 0 323.2238-69.93437 573.0703-71.35351 175.883 7.52285 337.154 69.96289 479.6504 69.96289s327.5976-65.23047 471.2793-65.23047v230h-1524z" fill="url(#b)"/><g fill="#fff" fill-opacity=".261411" transform="translate(0 -3.40039)"><path d="m1524 4.7153465c-7.8355 0-15.8054.3426606-23.9297.9844615-8.1243.6417911-16.4038 1.5829676-24.8594 2.7809901-8.4555 1.1980224-17.0868 2.6522139-25.916 4.3208889-8.8292 1.668674-17.8562 3.552292-27.1015 5.606049s-18.7084 4.277467-28.4122 6.630727c-9.7037 2.35326-19.6468 4.835394-29.8515 7.402588-20.4094 5.134387-41.8638 10.61173-64.5313 16.088415-11.3337 2.738333-22.9717 5.475057-34.9336 8.170615-11.9618 2.695548-24.2484 5.348684-36.8808 7.915878-12.6325 2.567194-25.6097 5.049328-38.9551 7.402588s-27.0574 4.578892-41.1582 6.632639c-14.1008 2.053757-28.5916 3.935463-43.4902 5.604137-14.8986 1.668675-30.2065 3.122866-45.9453 4.320889-15.7389 1.198022-31.9079 2.139199-48.5293 2.78099-8.3108.3209-16.73413.567763-25.27348.733558-8.53934.165804-17.19549.250903-25.96875.250903-11.50317 0-22.64886-.249971-33.49219-.720143-10.84332-.470181-21.38257-1.160425-31.67382-2.039783-10.29126-.879358-20.33469-1.947986-30.18164-3.175545-9.84696-1.227559-19.49933-2.614588-29.00977-4.129363s-18.87846-3.156393-28.16016-4.897389c-9.28169-1.740996-18.47598-3.581064-27.63671-5.487296-18.32147-3.812482-36.50792-7.893686-54.99219-12.0012-18.48427-4.107504-37.2661-8.241671-56.77539-12.156325-9.75465-1.957323-19.69072-3.859278-29.86328-5.67691-10.17257-1.817632-20.58104-3.550498-31.2793-5.167445-10.69827-1.616956-21.68779-3.116923-33.01953-4.472199-11.33174-1.355286-23.00709-2.566203-35.08008-3.598823-12.07299-1.03263-24.54282-1.888777-37.46484-2.537756-12.92203-.648989-26.295-1.090389-40.17383-1.294741-6.93942-.102172-13.75731-.107055-20.45703-.02108-6.69973.086-13.28158.262563-19.75196.524793-6.47037.262219-12.82872.609636-19.08007 1.036169-6.25136.426524-12.39677.932263-18.43946 1.511157-12.08536 1.157797-23.76348 2.60991-35.07617 4.305571-11.31269 1.695652-22.26009 3.634626-32.88281 5.772678-10.62273 2.138051-20.92009 4.47518-30.93555 6.960148-10.01546 2.484978-19.74738 5.118168-29.23828 7.854599-9.4909 2.73642-18.74197 5.575081-27.79102 8.46748-9.04904 2.892409-17.89799 5.838262-26.58789 8.791176-17.37979 5.905818-34.12306 11.838769-50.5625 17.413792-8.21971 2.787511-16.36397 5.48452-24.47265 8.046124-8.10869 2.561604-16.18137 4.986138-24.261722 7.226378-8.080355 2.24022-16.168002 4.29596-24.302734 6.11934-8.134732 1.82337-16.316077 3.41587-24.587891 4.72693-8.271814 1.31105-16.633398 2.34205-25.125 3.0453-4.245801.35164-8.525542.62073-12.841797.80251-4.3162545.18181-8.6693591.27582-13.066406.27582v125.55476h1524z"/><path d="m1524 4.7153465c7.8355 0 15.8054.3426606 23.9297.9844615 8.1243.6417911 16.4038 1.5829676 24.8594 2.7809901 8.4555 1.1980224 17.0868 2.6522139 25.916 4.3208889 8.8292 1.668674 17.8562 3.552292 27.1015 5.606049s18.7084 4.277467 28.4122 6.630727c9.7037 2.35326 19.6468 4.835394 29.8515 7.402588 20.4094 5.134387 41.8638 10.61173 64.5313 16.088415 11.3337 2.738333 22.9717 5.475057 34.9336 8.170615 11.9618 2.695548 24.2484 5.348684 36.8808 7.915878 12.6325 2.567194 25.6097 5.049328 38.9551 7.402588s27.0574 4.578892 41.1582 6.632639c14.1008 2.053757 28.5916 3.935463 43.4902 5.604137 14.8986 1.668675 30.2065 3.122866 45.9453 4.320889 15.7389 1.198022 31.9079 2.139199 48.5293 2.78099 8.3108.3209 16.7341.567763 25.2735.733558 8.5393.165804 17.1955.250903 25.9687.250903 11.5032 0 22.6489-.249971 33.4922-.720143 10.8433-.470181 21.3826-1.160425 31.6738-2.039783 10.2913-.879358 20.3347-1.947986 30.1817-3.175545 9.8469-1.227559 19.4993-2.614588 29.0097-4.129363 9.5105-1.514775 18.8785-3.156393 28.1602-4.897389s18.476-3.581064 27.6367-5.487296c18.3215-3.812482 36.5079-7.893686 54.9922-12.0012 18.4843-4.107504 37.2661-8.241671 56.7754-12.156325 9.7547-1.957323 19.6907-3.859278 29.8633-5.67691 10.1725-1.817632 20.581-3.550498 31.2793-5.167445 10.6982-1.616956 21.6878-3.116923 33.0195-4.472199 11.3318-1.355286 23.0071-2.566203 35.0801-3.598823 12.073-1.03263 24.5428-1.888777 37.4648-2.537756 12.9221-.648989 26.295-1.090389 40.1739-1.294741 6.9394-.102172 13.7573-.107055 20.457-.02108 6.6997.086 13.2816.262563 19.7519.524793 6.4704.262219 12.8288.609636 19.0801 1.036169 6.2514.426524 12.3968.932263 18.4395 1.511157 12.0853 1.157797 23.7635 2.60991 35.0761 4.305571 11.3127 1.695652 22.2601 3.634626 32.8829 5.772678 10.6227 2.138051 20.9201 4.47518 30.9355 6.960148 10.0155 2.484978 19.7474 5.118168 29.2383 7.854599 9.4909 2.73642 18.742 5.575081 27.791 8.46748 9.049 2.892409 17.898 5.838262 26.5879 8.791176 17.3798 5.905818 34.1231 11.838769 50.5625 17.413792 8.2197 2.787511 16.364 5.48452 24.4726 8.046124 8.1087 2.561604 16.1814 4.986138 24.2618 7.226378 8.0803 2.24022 16.168 4.29596 24.3027 6.11934 8.1347 1.82337 16.3161 3.41587 24.5879 4.72693 8.2718 1.31105 16.6334 2.34205 25.125 3.0453 4.2458.35164 8.5255.62073 12.8418.80251 4.3162.18179 8.6694.2758 13.0664.2758v125.55478h-1524z"/></g></svg>